<mxfile host="app.diagrams.net" agent="Mozilla/5.0 (Windows NT 10.0; Win64; x64) AppleWebKit/537.36 (KHTML, like Gecko) Chrome/131.0.0.0 Safari/537.36" version="26.0.6">
  <diagram name="第 1 页" id="5msZLwDeeC-nuz0sIKxb">
    <mxGraphModel dx="1434" dy="738" grid="1" gridSize="10" guides="1" tooltips="1" connect="1" arrows="1" fold="1" page="1" pageScale="1" pageWidth="827" pageHeight="1169" math="0" shadow="0">
      <root>
        <mxCell id="0" />
        <mxCell id="1" parent="0" />
        <mxCell id="y895jo_XGCMb1JjXWKAu-1" value="DRAM" style="rounded=0;whiteSpace=wrap;html=1;" vertex="1" parent="1">
          <mxGeometry x="160" y="100" width="480" height="60" as="geometry" />
        </mxCell>
        <mxCell id="y895jo_XGCMb1JjXWKAu-2" value="" style="shape=flexArrow;endArrow=classic;startArrow=classic;html=1;rounded=0;strokeWidth=1;width=23;endSize=13.776666666666666;" edge="1" parent="1">
          <mxGeometry width="100" height="100" relative="1" as="geometry">
            <mxPoint x="90" y="200" as="sourcePoint" />
            <mxPoint x="730" y="200" as="targetPoint" />
          </mxGeometry>
        </mxCell>
        <mxCell id="y895jo_XGCMb1JjXWKAu-3" value="Data Bus" style="edgeLabel;html=1;align=center;verticalAlign=middle;resizable=0;points=[];" vertex="1" connectable="0" parent="y895jo_XGCMb1JjXWKAu-2">
          <mxGeometry x="0.013" y="-1" relative="1" as="geometry">
            <mxPoint as="offset" />
          </mxGeometry>
        </mxCell>
        <mxCell id="y895jo_XGCMb1JjXWKAu-4" value="" style="rounded=0;whiteSpace=wrap;html=1;" vertex="1" parent="1">
          <mxGeometry x="90" y="230" width="640" height="380" as="geometry" />
        </mxCell>
        <mxCell id="y895jo_XGCMb1JjXWKAu-5" style="edgeStyle=orthogonalEdgeStyle;rounded=0;orthogonalLoop=1;jettySize=auto;html=1;entryX=-0.002;entryY=0.229;entryDx=0;entryDy=0;entryPerimeter=0;" edge="1" parent="1">
          <mxGeometry relative="1" as="geometry">
            <mxPoint x="470.26" y="329.47" as="sourcePoint" />
            <mxPoint x="580" y="330.49000000000007" as="targetPoint" />
            <Array as="points">
              <mxPoint x="520.26" y="329.72" />
              <mxPoint x="520.26" y="330.72" />
            </Array>
          </mxGeometry>
        </mxCell>
        <mxCell id="y895jo_XGCMb1JjXWKAu-6" value="Weight SRAM" style="rounded=0;whiteSpace=wrap;html=1;" vertex="1" parent="1">
          <mxGeometry x="375" y="300" width="120" height="60" as="geometry" />
        </mxCell>
        <mxCell id="y895jo_XGCMb1JjXWKAu-7" style="edgeStyle=orthogonalEdgeStyle;rounded=0;orthogonalLoop=1;jettySize=auto;html=1;exitX=1;exitY=0.5;exitDx=0;exitDy=0;" edge="1" parent="1" source="y895jo_XGCMb1JjXWKAu-8" target="y895jo_XGCMb1JjXWKAu-9">
          <mxGeometry relative="1" as="geometry">
            <Array as="points">
              <mxPoint x="530" y="420" />
              <mxPoint x="530" y="365" />
            </Array>
          </mxGeometry>
        </mxCell>
        <mxCell id="y895jo_XGCMb1JjXWKAu-8" value="Kernel SRAM" style="rounded=0;whiteSpace=wrap;html=1;" vertex="1" parent="1">
          <mxGeometry x="375" y="390" width="120" height="60" as="geometry" />
        </mxCell>
        <mxCell id="y895jo_XGCMb1JjXWKAu-9" value="PE Araay" style="whiteSpace=wrap;html=1;aspect=fixed;" vertex="1" parent="1">
          <mxGeometry x="580" y="300" width="130" height="130" as="geometry" />
        </mxCell>
        <mxCell id="y895jo_XGCMb1JjXWKAu-10" value="System Control" style="rounded=0;whiteSpace=wrap;html=1;" vertex="1" parent="1">
          <mxGeometry x="310" y="240" width="370" height="30" as="geometry" />
        </mxCell>
        <mxCell id="y895jo_XGCMb1JjXWKAu-11" value="Data Control" style="rounded=0;whiteSpace=wrap;html=1;" vertex="1" parent="1">
          <mxGeometry x="300" y="295" width="50" height="270" as="geometry" />
        </mxCell>
        <mxCell id="y895jo_XGCMb1JjXWKAu-12" value="" style="edgeStyle=orthogonalEdgeStyle;rounded=0;orthogonalLoop=1;jettySize=auto;html=1;" edge="1" parent="1" source="y895jo_XGCMb1JjXWKAu-13" target="y895jo_XGCMb1JjXWKAu-11">
          <mxGeometry relative="1" as="geometry" />
        </mxCell>
        <mxCell id="y895jo_XGCMb1JjXWKAu-13" value="Quantization" style="whiteSpace=wrap;html=1;aspect=fixed;" vertex="1" parent="1">
          <mxGeometry x="170" y="390" width="80" height="80" as="geometry" />
        </mxCell>
        <mxCell id="y895jo_XGCMb1JjXWKAu-14" value="" style="edgeStyle=orthogonalEdgeStyle;rounded=0;orthogonalLoop=1;jettySize=auto;html=1;" edge="1" parent="1" source="y895jo_XGCMb1JjXWKAu-15" target="y895jo_XGCMb1JjXWKAu-13">
          <mxGeometry relative="1" as="geometry" />
        </mxCell>
        <mxCell id="y895jo_XGCMb1JjXWKAu-15" value="Input Buffer" style="whiteSpace=wrap;html=1;aspect=fixed;" vertex="1" parent="1">
          <mxGeometry x="170" y="270" width="80" height="80" as="geometry" />
        </mxCell>
        <mxCell id="y895jo_XGCMb1JjXWKAu-16" value="" style="endArrow=classic;html=1;rounded=0;entryX=0.5;entryY=0;entryDx=0;entryDy=0;exitX=0.185;exitY=-0.005;exitDx=0;exitDy=0;exitPerimeter=0;" edge="1" parent="1" source="y895jo_XGCMb1JjXWKAu-4" target="y895jo_XGCMb1JjXWKAu-15">
          <mxGeometry width="50" height="50" relative="1" as="geometry">
            <mxPoint x="200" y="229" as="sourcePoint" />
            <mxPoint x="440" y="230" as="targetPoint" />
          </mxGeometry>
        </mxCell>
        <mxCell id="y895jo_XGCMb1JjXWKAu-17" value="Feature Map SRAM" style="rounded=0;whiteSpace=wrap;html=1;" vertex="1" parent="1">
          <mxGeometry x="375" y="490" width="120" height="60" as="geometry" />
        </mxCell>
        <mxCell id="y895jo_XGCMb1JjXWKAu-18" style="edgeStyle=orthogonalEdgeStyle;rounded=0;orthogonalLoop=1;jettySize=auto;html=1;entryX=0;entryY=0.801;entryDx=0;entryDy=0;entryPerimeter=0;" edge="1" parent="1" source="y895jo_XGCMb1JjXWKAu-17" target="y895jo_XGCMb1JjXWKAu-9">
          <mxGeometry relative="1" as="geometry">
            <Array as="points">
              <mxPoint x="540" y="520" />
              <mxPoint x="540" y="404" />
            </Array>
          </mxGeometry>
        </mxCell>
        <mxCell id="y895jo_XGCMb1JjXWKAu-19" value="classification" style="whiteSpace=wrap;html=1;aspect=fixed;" vertex="1" parent="1">
          <mxGeometry x="170" y="490" width="80" height="80" as="geometry" />
        </mxCell>
        <mxCell id="y895jo_XGCMb1JjXWKAu-20" style="edgeStyle=orthogonalEdgeStyle;rounded=0;orthogonalLoop=1;jettySize=auto;html=1;entryX=0.014;entryY=0.667;entryDx=0;entryDy=0;entryPerimeter=0;" edge="1" parent="1" source="y895jo_XGCMb1JjXWKAu-11" target="y895jo_XGCMb1JjXWKAu-8">
          <mxGeometry relative="1" as="geometry" />
        </mxCell>
        <mxCell id="y895jo_XGCMb1JjXWKAu-21" value="" style="endArrow=classic;html=1;rounded=0;entryX=0;entryY=0.5;entryDx=0;entryDy=0;" edge="1" parent="1" target="y895jo_XGCMb1JjXWKAu-17">
          <mxGeometry width="50" height="50" relative="1" as="geometry">
            <mxPoint x="350" y="520" as="sourcePoint" />
            <mxPoint x="370" y="460" as="targetPoint" />
          </mxGeometry>
        </mxCell>
        <mxCell id="y895jo_XGCMb1JjXWKAu-22" value="" style="endArrow=classic;html=1;rounded=0;entryX=0;entryY=0.5;entryDx=0;entryDy=0;" edge="1" parent="1">
          <mxGeometry width="50" height="50" relative="1" as="geometry">
            <mxPoint x="350" y="329.83000000000004" as="sourcePoint" />
            <mxPoint x="375" y="329.83000000000004" as="targetPoint" />
          </mxGeometry>
        </mxCell>
        <mxCell id="y895jo_XGCMb1JjXWKAu-23" style="edgeStyle=orthogonalEdgeStyle;rounded=0;orthogonalLoop=1;jettySize=auto;html=1;entryX=1.01;entryY=0.594;entryDx=0;entryDy=0;entryPerimeter=0;" edge="1" parent="1" source="y895jo_XGCMb1JjXWKAu-9" target="y895jo_XGCMb1JjXWKAu-19">
          <mxGeometry relative="1" as="geometry">
            <Array as="points">
              <mxPoint x="645" y="590" />
              <mxPoint x="280" y="590" />
              <mxPoint x="280" y="538" />
            </Array>
          </mxGeometry>
        </mxCell>
        <mxCell id="y895jo_XGCMb1JjXWKAu-24" style="edgeStyle=orthogonalEdgeStyle;rounded=0;orthogonalLoop=1;jettySize=auto;html=1;entryX=0.037;entryY=0.006;entryDx=0;entryDy=0;entryPerimeter=0;" edge="1" parent="1" source="y895jo_XGCMb1JjXWKAu-19" target="y895jo_XGCMb1JjXWKAu-4">
          <mxGeometry relative="1" as="geometry">
            <Array as="points">
              <mxPoint x="114" y="530" />
              <mxPoint x="114" y="260" />
            </Array>
          </mxGeometry>
        </mxCell>
      </root>
    </mxGraphModel>
  </diagram>
</mxfile>
